HIERARCHY
ROOT SimulationBone
{
	OFFSET 0.000000 0.000000 0.000000
	CHANNELS 6 Xposition Yposition Zposition Zrotation Yrotation Xrotation 
	JOINT Hips
	{
		OFFSET 0.000000 0.000000 0.000000
		CHANNELS 6 Xposition Yposition Zposition Zrotation Yrotation Xrotation 
		JOINT RightUpLeg
		{
			OFFSET 0.103456 1.857840 10.548501
			CHANNELS 3 Zrotation Yrotation Xrotation
			JOINT RightLeg
			{
				OFFSET 43.499992 -0.000038 -0.000006
				CHANNELS 3 Zrotation Yrotation Xrotation
				JOINT RightFoot
				{
					OFFSET 42.372196 0.000031 0.000002
					CHANNELS 3 Zrotation Yrotation Xrotation
					JOINT RightToe
					{
						OFFSET 17.299974 -0.000010 -0.000017
						CHANNELS 3 Zrotation Yrotation Xrotation
						End Site
						{
							OFFSET 0.000000 0.000000 0.000000
						}
					}
				}
			}
		}
		JOINT LeftUpLeg
		{
			OFFSET 0.103462 1.857831 -10.548510
			CHANNELS 3 Zrotation Yrotation Xrotation
			JOINT LeftLeg
			{
				OFFSET 43.500046 -0.000015 0.000008
				CHANNELS 3 Zrotation Yrotation Xrotation
				JOINT LeftFoot
				{
					OFFSET 42.372265 -0.000015 0.000004
					CHANNELS 3 Zrotation Yrotation Xrotation
					JOINT LeftToe
					{
						OFFSET 17.299995 -0.000004 0.000013
						CHANNELS 3 Zrotation Yrotation Xrotation
						End Site
						{
							OFFSET 0.000000 0.000000 0.000000
						}
					}
				}
			}
		}
		JOINT Spine
		{
			OFFSET 6.901966 -2.603716 -0.000002
			CHANNELS 3 Zrotation Yrotation Xrotation
			JOINT Spine1
			{
				OFFSET 12.588102 -0.000001 0.000005
				CHANNELS 3 Zrotation Yrotation Xrotation
				JOINT Spine2
				{
					OFFSET 12.343201 -0.000023 -0.000011
					CHANNELS 3 Zrotation Yrotation Xrotation
					JOINT Neck
					{
						OFFSET 25.832901 0.000011 0.000007
						CHANNELS 3 Zrotation Yrotation Xrotation
						JOINT Head
						{
							OFFSET 11.766600 -0.000002 0.000002
							CHANNELS 3 Zrotation Yrotation Xrotation
							End Site
							{
								OFFSET 0.000000 0.000000 0.000000
							}
						}
					}
					JOINT RightShoulder
					{
						OFFSET 19.745907 -1.480350 6.000119
						CHANNELS 3 Zrotation Yrotation Xrotation
						JOINT RightArm
						{
							OFFSET 11.284122 -0.000013 -0.000023
							CHANNELS 3 Zrotation Yrotation Xrotation
							JOINT RightForeArm
							{
								OFFSET 33.000057 0.000005 0.000025
								CHANNELS 3 Zrotation Yrotation Xrotation
								JOINT RightHand
								{
									OFFSET 25.199997 0.000020 0.000019
									CHANNELS 3 Zrotation Yrotation Xrotation
									End Site
									{
										OFFSET 0.000000 0.000000 0.000000
									}
								}
							}
						}
					}
					JOINT LeftShoulder
					{
						OFFSET 19.746096 -1.480352 -6.000062
						CHANNELS 3 Zrotation Yrotation Xrotation
						JOINT LeftArm
						{
							OFFSET 11.284150 0.000007 -0.000012
							CHANNELS 3 Zrotation Yrotation Xrotation
							JOINT LeftForeArm
							{
								OFFSET 33.000092 0.000019 0.000012
								CHANNELS 3 Zrotation Yrotation Xrotation
								JOINT LeftHand
								{
									OFFSET 25.199797 0.000118 0.000427
									CHANNELS 3 Zrotation Yrotation Xrotation
									End Site
									{
										OFFSET 0.000000 0.000000 0.000000
									}
								}
							}
						}
					}
				}
			}
		}
	}
}
MOTION
Frames: 16
Frame Time: 0.016667
99.661025 0.000000 -237.151704 0.000000 77.047337 0.000000 -1.477965 87.440750 -0.843878 89.447548 -4.124013 -179.986555 153.444556 5.685406 170.327801 -30.815210 2.051610 -4.044559 79.294944 3.019385 0.655808 21.454558 0.003109 0.000018 172.850942 12.743001 -172.407867 -70.033549 -2.409940 -4.594627 63.518313 6.355403 7.154717 21.454545 -0.003086 -0.000002 7.017806 -1.402097 1.018799 3.999335 -2.838092 1.989688 3.681014 -2.826161 2.006796 5.003462 -5.267988 5.918996 -10.411363 -0.996375 5.461863 -166.304928 -74.402503 -15.427001 17.532545 58.222388 38.110119 -26.849070 -9.320985 0.831907 10.389018 0.959935 4.768004 -165.776871 83.919026 15.952122 -39.849125 -61.508153 -1.708356 -55.553653 18.094052 -2.146498 0.780932 11.515967 -6.212652 
99.956235 0.000000 -239.194800 0.000000 77.289076 0.000000 -1.498598 87.971821 -0.888808 89.442877 -3.883437 179.718304 155.112616 5.720959 170.121344 -30.263897 2.297120 -3.875435 80.237745 2.913484 0.795032 21.454558 0.003107 0.000017 169.394602 12.354437 -173.538051 -73.885953 -2.497798 -3.130226 65.531213 5.317840 7.594980 21.454545 -0.003088 -0.000002 6.980549 -1.328052 0.901074 3.928728 -2.685492 1.757542 3.610399 -2.674980 1.773741 5.322243 -5.298858 6.101630 -9.472076 -1.063179 5.666298 -167.303456 -74.515649 -14.402390 15.876557 58.225941 36.634980 -28.138966 -9.771410 0.883551 10.501222 0.296479 5.147434 -165.579312 83.948168 16.151387 -40.187597 -61.622394 -3.326511 -53.056204 18.053597 -2.056037 1.842693 10.311740 -5.843773 
100.271121 0.000000 -241.230637 0.000000 77.590786 0.000000 -1.522726 88.515228 -0.925216 89.390116 -3.542224 179.414433 156.837946 5.685897 170.514607 -29.505610 2.322712 -3.980361 81.073238 2.954408 0.732411 21.454560 0.003107 0.000016 165.977545 11.786890 -174.330634 -76.835024 -2.524407 -1.633679 67.734698 4.117597 7.756552 21.454548 -0.003091 -0.000002 6.928535 -1.222398 0.771541 3.828910 -2.469278 1.503047 3.510598 -2.460312 1.517944 5.677778 -5.425409 6.279430 -8.635419 -1.086571 5.840415 -167.944078 -74.469494 -13.745122 14.159971 58.093988 35.278069 -29.631378 -10.391889 0.951252 10.477978 -0.521555 5.571081 -165.729934 84.013577 15.999047 -40.317751 -61.744396 -4.976019 -50.447681 17.857977 -1.955515 2.624461 8.831713 -5.448542 
100.597913 0.000000 -243.267724 0.000000 77.956629 0.000000 -1.538384 89.047201 -0.932573 89.293254 -3.135895 179.260191 158.585968 5.634265 171.427912 -28.613029 2.196951 -4.246451 81.778736 3.089407 0.564838 21.454561 0.003109 0.000016 162.731662 11.072497 -174.465662 -78.647743 -2.684775 0.085879 68.744189 2.752567 7.631390 21.454552 -0.003091 -0.000004 6.863579 -1.095014 0.606918 3.703623 -2.208594 1.179154 3.385334 -2.201577 1.192471 6.378855 -5.628987 6.388476 -8.481521 -1.053167 5.950749 -168.294209 -74.326221 -13.386000 12.380598 57.832846 34.131112 -31.247258 -11.164264 1.032647 10.103312 -1.373486 5.549339 -165.335400 84.034811 16.397432 -40.210136 -61.922478 -6.615759 -47.816177 17.472106 -1.846096 3.138556 7.076134 -5.064651 
100.930080 0.000000 -245.311096 0.000000 78.386497 0.000000 -1.547252 89.550980 -0.897508 89.216559 -2.681945 179.243132 160.375560 5.530402 172.522328 -27.663440 2.051332 -4.504216 82.388234 3.209694 0.347080 21.454562 0.003111 0.000016 159.751937 10.308401 -174.107983 -79.461402 -2.919622 1.767013 68.960198 1.423421 7.340719 21.454555 -0.003092 -0.000005 6.805701 -0.953578 0.426302 3.592146 -1.919717 0.823334 3.273885 -1.914842 0.834901 7.131093 -5.671568 6.392716 -8.581151 -1.164397 6.029824 -168.580078 -74.298903 -13.093025 10.646154 57.625423 33.096896 -33.021341 -12.001132 1.124030 9.505799 -2.412044 5.191137 -163.840840 83.945357 17.907220 -39.774280 -62.147602 -8.227968 -45.229768 16.842961 -1.724768 3.567284 5.437636 -5.073106 
101.272298 0.000000 -247.366080 0.000000 78.878509 0.000000 -1.556394 90.004105 -0.824372 89.219725 -2.220606 179.309257 162.213865 5.366025 173.445763 -26.751053 2.001450 -4.601212 82.957240 3.215247 0.115270 21.454561 0.003112 0.000017 157.107647 9.601154 -173.537398 -79.470795 -3.112804 3.081499 69.119926 0.353592 7.021576 21.454555 -0.003096 -0.000002 6.772367 -0.811286 0.253011 3.528808 -1.629771 0.481572 3.210577 -1.626966 0.491395 7.593166 -5.354740 6.289649 -8.388193 -1.577321 6.112749 -169.033790 -74.566674 -12.628391 9.064032 57.628139 32.011135 -35.019132 -12.804247 1.220110 8.868549 -3.764750 4.759821 -161.289809 83.697048 20.486063 -38.897683 -62.398245 -9.822867 -42.749095 15.941388 -1.592824 4.115145 4.310173 -5.730249 
101.634126 0.000000 -249.438635 0.000000 79.433187 0.000000 -1.567244 90.354317 -0.743935 89.287051 -1.904147 179.399984 164.012117 5.272795 174.066142 -26.027036 2.054469 -4.523230 83.567999 3.098467 -0.120862 21.454560 0.003110 0.000018 154.787482 9.140504 -172.988024 -78.766533 -3.160060 3.923372 69.558454 -0.338272 6.864136 21.454555 -0.003098 0.000002 6.752224 -0.706248 0.084479 3.490949 -1.414653 0.147928 3.172741 -1.413869 0.156466 7.842851 -4.863757 6.154364 -7.895619 -2.047168 6.178955 -169.726074 -75.025628 -11.919921 7.739190 57.722651 30.745641 -37.318230 -13.500700 1.319896 8.260109 -5.185870 4.541901 -159.179221 83.338345 22.623027 -37.435165 -62.664429 -11.503298 -40.420099 14.853884 -1.459268 4.818529 3.683436 -6.441742 
102.019385 0.000000 -251.528335 0.000000 80.049699 0.000000 -1.576621 90.561834 -0.683371 89.374012 -1.849678 179.472657 165.672864 5.364897 174.378512 -25.606127 2.179637 -4.306216 84.291340 2.886261 -0.356917 21.454558 0.003106 0.000017 152.743937 9.059426 -172.634276 -77.403081 -2.974126 4.276453 70.392074 -0.598878 7.016193 21.454555 -0.003093 0.000003 6.727041 -0.667658 -0.086194 3.442582 -1.332461 -0.191940 3.124390 -1.333724 -0.183886 8.044926 -4.422165 6.055964 -7.260899 -2.309789 6.206262 -170.677254 -75.539058 -10.947228 6.752781 57.774718 29.244628 -39.944808 -14.038568 1.421128 7.679441 -6.401062 4.745724 -158.481973 82.964684 23.332924 -35.306891 -62.950311 -13.378272 -38.279325 13.696422 -1.328220 5.638830 3.446615 -6.565082 
102.429186 0.000000 -253.629821 0.000000 80.720915 0.000000 -1.597382 90.666580 -0.650328 89.388839 -1.921078 179.555048 167.147570 5.529208 174.633211 -25.403442 2.295134 -4.043353 85.126067 2.649028 -0.583165 21.454558 0.003102 0.000016 150.845751 9.218600 -172.420653 -75.393061 -2.573018 4.242851 71.272456 -0.520519 7.393419 21.454557 -0.003088 0.000001 6.679286 -0.663761 -0.257162 3.349022 -1.319876 -0.533173 3.030847 -1.323194 -0.525186 8.285755 -4.020629 5.973225 -6.764435 -2.428442 6.207300 -171.896982 -76.123567 -9.701893 5.996095 57.856645 27.605061 -42.707410 -14.424769 1.521669 7.011678 -7.410718 5.266185 -158.091788 82.677143 23.731927 -32.733257 -63.326049 -15.482455 -36.351406 12.586388 -1.209741 6.478927 3.540167 -6.117672 
102.867764 0.000000 -255.740877 0.000000 81.436341 0.000000 -1.641343 90.711620 -0.647644 89.261804 -1.962153 179.677169 168.422842 5.618377 175.067432 -25.318620 2.326799 -3.822450 86.070695 2.451817 -0.792206 21.454558 0.003099 0.000016 148.996538 9.436190 -172.242897 -72.741744 -2.032833 3.931434 71.846070 -0.223875 7.805568 21.454556 -0.003088 -0.000001 6.599259 -0.656720 -0.423820 3.190807 -1.301633 -0.865349 2.872656 -1.306967 -0.857465 8.588329 -3.613404 5.870097 -6.618206 -2.522497 6.192846 -173.333925 -76.788811 -8.238110 5.292797 58.033672 25.920628 -45.428235 -14.688010 1.618684 6.193616 -8.254645 5.925879 -156.939568 82.524713 24.901158 -29.911083 -63.830329 -17.882447 -34.644682 11.614862 -1.107854 7.232886 3.896579 -5.262899 
103.336265 0.000000 -257.865392 0.000000 82.186297 0.000000 -1.686636 90.672890 -0.659588 89.069914 -1.982994 179.796884 169.582901 5.624106 175.643314 -25.385248 2.281651 -3.651816 87.196386 2.296868 -0.997448 21.454560 0.003099 0.000017 147.327903 9.597599 -172.072450 -69.458768 -1.561462 3.343069 72.191834 0.180207 7.874546 21.454555 -0.003090 -0.000002 6.508720 -0.645020 -0.579193 3.011331 -1.274942 -1.174746 2.693214 -1.282156 -1.167018 8.804291 -3.243669 5.736279 -6.636146 -2.607038 6.138526 -174.562013 -77.368328 -6.990001 4.455335 58.139661 24.186098 -48.204121 -14.882965 1.715292 5.456779 -8.855502 6.550831 -155.303225 82.371430 26.561007 -26.749624 -64.282679 -20.740710 -33.119791 10.762959 -1.018562 7.786208 4.346526 -4.091298 
103.827624 0.000000 -260.007023 0.000000 82.960388 0.000000 -1.711486 90.521629 -0.667378 88.897701 -2.039088 179.862918 170.719165 5.592603 176.260143 -25.625112 2.192101 -3.517503 88.549830 2.171835 -1.211586 21.454560 0.003105 0.000017 145.983237 9.661527 -171.912125 -65.539823 -1.309256 2.461824 72.420168 0.623654 7.365778 21.454551 -0.003091 0.000000 6.429960 -0.638821 -0.717022 2.855215 -1.260043 -1.449360 2.537143 -1.268917 -1.441718 8.783574 -2.958850 5.574358 -6.583303 -2.668724 6.024953 -175.068401 -77.710381 -6.477398 3.365005 58.007891 22.378306 -51.141209 -15.040093 1.818811 4.995680 -9.159227 7.028740 -153.732081 82.085026 28.157751 -23.209438 -64.492673 -24.109469 -31.727364 9.985276 -0.939251 8.060177 4.735817 -2.689700 
104.334210 0.000000 -262.163364 0.000000 83.746667 0.000000 -1.729475 90.277420 -0.692344 88.709695 -2.207894 179.857706 171.855196 5.636193 176.834158 -25.880310 2.110398 -3.398063 90.006121 2.064478 -1.420998 21.454560 0.003110 0.000017 144.922994 9.816500 -171.831959 -60.941617 -1.102944 1.399967 72.359310 1.195704 6.805684 21.454550 -0.003091 0.000003 6.355762 -0.659254 -0.836353 2.708406 -1.299132 -1.687676 2.390374 -1.309440 -1.679796 8.539173 -2.731785 5.421697 -6.427675 -2.685239 5.889735 -174.906965 -77.866078 -6.644054 2.084656 57.716094 20.402551 -54.100876 -15.071606 1.922783 4.540911 -9.288758 7.523505 -152.335945 81.714961 29.580073 -19.479277 -64.497918 -27.770542 -30.420087 9.240449 -0.864429 8.147389 5.048936 -1.183037 
104.853486 0.000000 -264.331109 0.000000 84.535098 0.000000 -1.753146 89.971826 -0.759124 88.463047 -2.529894 179.786031 173.007838 5.828638 177.319476 -25.989364 2.077162 -3.274697 91.424813 1.962795 -1.610472 21.454558 0.003109 0.000018 144.104116 10.208069 -171.887118 -55.624864 -0.770114 0.358828 71.904786 1.946235 6.765327 21.454551 -0.003090 0.000003 6.274482 -0.719296 -0.938696 2.548019 -1.418186 -1.892772 2.230008 -1.429727 -1.884171 8.137083 -2.527115 5.312818 -6.187485 -2.633278 5.771458 -174.389401 -77.932294 -7.172715 0.753775 57.390611 18.217938 -56.922423 -14.888332 2.011154 3.826209 -9.379864 8.142324 -151.052752 81.353037 30.889220 -15.716671 -64.407906 -31.508213 -29.171060 8.504173 -0.791942 8.207530 5.254506 0.263487 
105.383811 0.000000 -266.509541 0.000000 85.319524 0.000000 -1.759551 89.635986 -0.841138 88.196564 -2.869262 179.710716 174.225722 6.014603 177.788130 -25.956471 2.068641 -3.143483 92.774609 1.862316 -1.785276 21.454557 0.003106 0.000019 143.656964 10.587605 -171.974068 -49.591708 -0.443857 -0.340332 71.473475 2.629998 7.255055 21.454553 -0.003088 0.000001 6.186029 -0.788093 -1.030307 2.373527 -1.555377 -2.076335 2.055527 -1.568022 -2.066907 7.692128 -2.353206 5.233198 -5.878289 -2.493972 5.654506 -174.010010 -78.005803 -7.560060 -0.302376 57.116772 16.129291 -59.612189 -14.508208 2.083099 3.078694 -9.481004 8.469350 -149.796809 81.083272 32.169951 -11.865324 -64.329896 -35.246612 -28.030901 7.817456 -0.727093 8.493475 5.132030 1.352360 
105.921665 0.000000 -268.697392 0.000000 86.096256 0.000000 -1.731723 89.298074 -0.904179 87.952524 -3.078311 179.690840 175.546210 6.017767 178.302795 -25.813073 2.056518 -3.000589 94.045547 1.758751 -1.954117 21.454558 0.003106 0.000019 143.713994 10.682363 -171.913504 -42.888222 -0.376817 -0.503858 71.469314 3.006284 8.082269 21.454553 -0.003087 0.000001 6.094166 -0.832210 -1.117594 2.191861 -1.643660 -2.250530 1.873878 -1.657356 -2.240575 7.298237 -2.213270 5.156871 -5.521889 -2.275554 5.518237 -174.182533 -78.154208 -7.384831 -0.846113 56.955438 14.394251 -62.210525 -13.976687 2.144890 2.576552 -9.602198 8.162945 -148.493427 80.954361 33.496146 -7.840507 -64.331675 -38.955539 -27.027721 7.214112 -0.671097 9.138660 4.519911 1.857766 
